<svg width="52" height="52" viewBox="0 0 52 52" fill="none" xmlns="http://www.w3.org/2000/svg">
<path d="M5.67425 12.0711C2.46019 16.6358 0.866428 22.1448 1.14694 27.7204C1.42746 33.296 3.56611 38.6173 7.22208 42.8363C10.8781 47.0553 15.841 49.9292 21.3199 51C26.7989 52.0708 32.4787 51.277 37.4541 48.745C42.4295 46.213 46.4143 42.0885 48.7735 37.0288C51.1326 31.9691 51.7303 26.2654 50.4714 20.8266C49.2125 15.3877 46.1693 10.5267 41.8269 7.01824C37.4845 3.50976 32.0927 1.55566 26.5108 1.46736L26.4585 4.77243C31.3024 4.84906 35.9813 6.54478 39.7496 9.58938C43.5178 12.634 46.1586 16.8522 47.2511 21.572C48.3435 26.2917 47.8248 31.2413 45.7776 35.632C43.7304 40.0227 40.2725 43.6018 35.9549 45.799C31.6373 47.9963 26.7085 48.6852 21.954 47.7559C17.1994 46.8266 12.8927 44.3327 9.72014 40.6716C6.54756 37.0104 4.69167 32.3927 4.44825 27.5543C4.20482 22.7159 5.58787 17.9353 8.37697 13.9742L5.67425 12.0711Z" fill="black" stroke="black"/>
</svg>
